<svg height="80" viewBox="0 0 80 80" width="80" xmlns="http://www.w3.org/2000/svg" xmlns:xlink="http://www.w3.org/1999/xlink"><mask id="a" fill="#fff"><path d="m0 0h80v80h-80z" fill="#fff" fill-rule="evenodd"/></mask><g fill="none" mask="url(#a)"><path d="m69.3286 1.60059h-58.656c-5.01034 0-9.07201 4.06167-9.07201 9.07201v58.656c0 5.0103 4.06167 9.072 9.07201 9.072h58.656c5.0103 0 9.072-4.0617 9.072-9.072v-58.656c0-5.01034-4.0617-9.07201-9.072-9.07201z" fill="#fff"/><g fill="#003e69"><path d="m69.328 3.20001c1.9817 0 3.8822.78723 5.2835 2.1885s2.1885 3.30181 2.1885 5.28349v58.656c0 1.9817-.7872 3.8822-2.1885 5.2835s-3.3018 2.1885-5.2835 2.1885h-58.656c-1.98168 0-3.88222-.7872-5.28349-2.1885s-2.1885-3.3018-2.1885-5.2835v-58.656c0-1.98168.78723-3.88222 2.1885-5.28349s3.30181-2.1885 5.28349-2.1885zm0-3.19999797h-58.656c-1.40205-.00210678-2.79074.27249497-4.08648.80806697-1.29573.535571-2.47304 1.321581-3.46445 2.312991s-1.77742 2.16872-2.312991 3.46445c-.535572 1.29574-.81017375 2.68443-.80806697 4.08648v58.656c-.00210678 1.4021.27249497 2.7908.80806697 4.0865.535571 1.2957 1.321581 2.4731 2.312991 3.4645s2.16872 1.7774 3.46445 2.3129c1.29574.5356 2.68443.8102 4.08648.8081h58.656c1.4021.0021 2.7908-.2725 4.0865-.8081 1.2957-.5355 2.4731-1.3215 3.4645-2.3129s1.7774-2.1688 2.3129-3.4645c.5356-1.2957.8102-2.6844.8081-4.0865v-58.656c.0021-1.40205-.2725-2.79074-.8081-4.08648-.5355-1.29573-1.3215-2.47304-2.3129-3.46445s-2.1688-1.77742-3.4645-2.312991c-1.2957-.535572-2.6844-.81017375-4.0865-.80806697z"/><path d="m0 45.8721h80v23.456c0 2.8304-1.1244 5.5448-3.1258 7.5462-2.0013 2.0014-4.7158 3.1258-7.5462 3.1258h-58.656c-2.83039 0-5.54486-1.1244-7.54624-3.1258-2.00139-2.0014-3.12576-4.7158-3.12576-7.5462z"/><g transform="translate(10 18)"><path d="m1.9199.96v11.808h-1.792v-11.808z"/><path d="m10.8001 12.5914v.928c0 .272 0 .512-.096.704-.118.5367-.3651 1.0365-.72 1.456-.3492.387-.7803.6912-1.2619.8905s-1.0016.2886-1.5221.2615c-.8863.0413-1.7571-.2433-2.448-.8-.3343-.2858-.6084-.6353-.8062-1.0281-.1978-.3929-.3153-.8212-.3458-1.2599h1.664c.041.3058.1564.597.336.848.1891.2379.4342.4252.7134.5453.2792.12.5838.169.8866.1427 1.264 0 1.888-.768 1.888-2.304v-1.04c-.3082.3274-.6801.5882-1.0928.7665-.4128.1784-.8576.2703-1.3072.2703s-.8945-.0919-1.3072-.2703c-.4128-.1783-.7847-.4391-1.0928-.7665-.6636-.7787-1.0118-1.7776-.976-2.8-.0251-.9978.2909-1.9743.896-2.768.3096-.3871.7049-.697 1.1547-.9053.4498-.2082.9418-.3091 1.4373-.2947.4423-.0123.8818.0747 1.2861.2547.4042.18.763.4483 1.0499.7853v-.832h1.664zm-1.6-3.536c.0265-.6299-.1848-1.2467-.592-1.728-.1852-.2155-.4166-.3864-.677-.5-.2604-.1135-.5431-.1669-.827-.156-.3057-.0242-.6126.0291-.8923.1549-.2796.1259-.5231.3202-.7077.5651-.3329.494-.5108 1.0762-.5108 1.672 0 .5957.1779 1.1779.5108 1.672.1854.243.4294.4351.7092.5582.2799.1231.5863.1733.8908.1458.3049.0171.6094-.0394.8879-.1648.2784-.1253.5227-.3157.7121-.5552.3566-.4787.5323-1.0682.496-1.664z"/><path d="m12.4004 5.3272h1.728v.672c.2591-.2807.5732-.5052.9228-.6593.3496-.1542.7271-.2347 1.1092-.2367.378-.0227.7563.0387 1.1076.1798.3514.1411.6671.3584.9244.6362.4754.6572.697 1.4642.624 2.2721v4.5599h-1.616v-4.1599c.0473-.5254-.0583-1.0533-.304-1.5201-.1347-.1515-.3039-.2683-.4932-.3407-.1894-.0724-.3934-.0982-.5948-.0753-.2341-.0227-.4701.0172-.6837.1156-.2137.0984-.3974.2518-.5323.4445-.3005.6163-.4382 1.2993-.4 1.9839v3.584h-1.792z"/><path d="m20.4004 2.2235c-.0006-.1467.0289-.292.0867-.4268.0578-.1349.1426-.2564.2493-.3572.1015-.1045.2236-.1869.3585-.242s.2798-.0816.4255-.078c.1481-.0039.2955.0224.433.0775.1376.055.2625.1375.367.2425.1046.1016.187.2236.242.3585.0551.135.0816.2798.078.4255.0021.1471-.0248.2932-.0791.4299s-.1351.2613-.2376.3668-.2248.1898-.3599.248-.2803.0892-.4274.0913c-.3-.0041-.5865-.1251-.7987-.3373-.2121-.2121-.3332-.4987-.3373-.7987zm1.984 3.104v7.44h-1.792v-7.44z"/><path d="m26.0956 6.9278v5.84h-1.712v-5.84h-.784v-1.6h.736v-2.736h1.712v2.736h1.344v1.6z"/><path d="m28.192 2.2239c-.0006-.1467.0289-.292.0867-.4268.0578-.1349.1426-.2565.2493-.3572.1003-.1062.2222-.1896.3574-.2448s.2807-.0808.4266-.0752c.1481-.0039.2955.0224.433.0774.1376.0551.2625.1376.367.2426.2111.2128.3295.5003.3295.8s-.1184.5872-.3295.8c-.1026.1087-.2267.1947-.3645.2526-.1377.0578-.2861.0863-.4355.0834-.147.0026-.2929-.026-.428-.0839-.1352-.0579-.2565-.1438-.356-.2521-.1107-.1044-.1979-.2311-.2558-.3718-.058-.1407-.0853-.2921-.0802-.4442zm1.984 3.104v7.44h-1.776v-7.44z"/><path d="m31.6002 8.9915c-.0068-.5132.0919-1.0223.2901-1.4957s.4915-.901.8619-1.2563c.7616-.7249 1.7727-1.1291 2.824-1.1291 1.0514 0 2.0625.4042 2.824 1.1291.3697.3651.661.8016.8563 1.283s.2905.9976.2797 1.517c.0126.5211-.0834 1.0391-.2817 1.5211s-.4947.9175-.8703 1.2789c-.3753.3681-.8209.657-1.3102.8494-.4892.1924-1.0122.2844-1.5378.2706-.52.0156-1.0376-.0774-1.5197-.273s-.9181-.4895-1.2803-.863c-.3736-.3688-.6672-.8106-.8627-1.2978-.1954-.4872-.2884-1.0095-.2733-1.5342zm1.76 0c-.0363.641.1757 1.2713.592 1.76.2041.2177.4526.389.7286.5021.2761.1132.5733.1657.8714.1539.2968.0128.593-.0376.8688-.148.2759-.1103.5251-.278.7312-.492.4197-.4814.6375-1.1061.608-1.744.0286-.633-.1893-1.2524-.608-1.728-.204-.2177-.4525-.389-.7286-.5022-.276-.1131-.5732-.1656-.8714-.1538-.2984-.014-.5962.0375-.8726.1508-.2764.1134-.5247.2858-.7274.5052-.2219.2277-.3946.4986-.5075.7958-.1128.2973-.1634.6146-.1485.9322z"/><path d="m46.2559 6.2554c-.24-.336-.464-.656-.688-.944-.364-.1322-.7489-.1972-1.136-.192-.3821.002-.7596.0825-1.1092.2367-.3496.1541-.6637.3786-.9228.6593v-.688h-1.728v7.44h1.728v-3.568c-.0444-.6799.0937-1.3593.4-1.968.1337-.1939.3172-.3482.5312-.4467.2139-.0986.4505-.1377.6848-.1133.2013-.0216.4049.0048.594.0771.1892.0723.3585.1885.494.3389.2457.4668.3513.9947.304 1.52v4.16h1.728v-4.56c.0255-.3088.0255-.6192 0-.928-.384-.368-.64-.72-.88-1.024z"/></g></g><path d="m74.0156 9.03955c-.1856-.44491-.519-.81221-.944-1.04-.4092-.24324-.8873-.34449-1.36-.288-.2725.05832-.5274.17995-.7443.35506-.2168.17511-.3893.39879-.5037.65294 0 .112-.224.464-.496 1.04l-1.024 2.20805c-.416.88-.88 1.888-1.408 2.992s-1.072 2.288-1.6 3.52l-1.696 3.712-1.6 3.488c.2493.0956.4816.2307.688.3999 1.04-1.52 2.144-3.1999 3.328-4.7999s2.304-3.36 3.328-4.8l2.576-4 1.248-1.856c.1596-.2278.2619-.4908.2981-.76657s.0053-.5562-.0901-.81748z" fill="#f7901e"/><path d="m59.728 25.7275c-.32-1.312-.592-2.368-.8-3.2s-.3841-1.44-.5121-1.904-.2399-.816-.3199-1.04-.16-.4-.24-.56c-.0706-.1671-.1754-.3175-.3076-.4415-.1323-.124-.2892-.2189-.4604-.2785-.1822-.0562-.3738-.0752-.5634-.056s-.3735.0764-.5406.168c-.3475.1525-.6227.4334-.7681.784-.0741.1661-.1124.346-.1124.528 0 .1819.0383.3618.1124.528l.288.528c.128.208.3201.512.6081.912s.672.928 1.168 1.6 1.1519 1.6 1.968 2.64c.1531-.0843.3138-.1539.48-.208z" fill="#f7901e"/><path d="m63.3754 28.9436c0 .4304-.1276.8511-.3667 1.2089s-.5789.6367-.9765.8014c-.3977.1647-.8352.2078-1.2573.1239-.4221-.084-.8098-.2912-1.1141-.5956-.3043-.3043-.5116-.692-.5955-1.1141-.084-.4221-.0409-.8596.1238-1.2572.1647-.3977.4436-.7375.8014-.9766.3579-.2391.7786-.3667 1.2089-.3667.5771 0 1.1306.2292 1.5387.6373s.6373.9616.6373 1.5387z" fill="#f7901e"/></g></svg>